<svg xmlns="http://www.w3.org/2000/svg" fill="none" viewBox="0 0 50 51" height="51" width="50">
<path stroke-miterlimit="10" stroke-width="2" stroke="#3F0113" d="M41.7164 36.0728C39.7478 34.4033 37.584 32.9737 35.2714 31.8148C33.1264 30.7443 32.9494 30.6572 31.2634 31.8979C30.1384 32.7258 29.3914 33.4655 28.0744 33.1853C25.5344 32.2886 23.2449 30.8091 21.3934 28.8678C18.8934 26.3922 17.2144 23.4809 16.9324 22.1817C16.6504 20.8825 17.4104 20.1507 18.2384 19.0347C19.4054 17.4612 19.3174 17.1988 18.3194 15.0737C17.1706 12.7727 15.719 10.6327 14.0024 8.7094C12.4854 7.22403 12.4854 7.48843 11.5084 7.89047C10.7128 8.22203 9.94963 8.62509 9.22838 9.0946C8.04661 9.75689 7.09094 10.7529 6.48338 11.9554C5.93538 13.115 5.68838 15.8352 8.52038 20.928C10.8166 25.311 13.8342 29.2844 17.4494 32.6852C20.9372 36.2061 24.9482 39.1782 29.3434 41.4983C35.0604 44.6671 37.2534 44.0512 38.4284 43.5086C39.6465 42.9119 40.6565 41.968 41.3284 40.7982C41.803 40.0837 42.2101 39.3272 42.5444 38.5385C42.9524 37.574 43.2174 37.574 41.7164 36.0728Z"></path>
</svg>
