<svg xmlns="http://www.w3.org/2000/svg" fill="none" viewBox="0 0 119 60" height="60" width="119">
<mask height="60" width="119" y="0" x="0" maskUnits="userSpaceOnUse" style="mask-type:luminance" id="mask0_789_51134">
<path fill="white" d="M118.898 0H0.279297V60H118.898V0Z"></path>
</mask>
<g mask="url(#mask0_789_51134)">
<path fill="#785830" d="M7.34883 37.4604C7.60245 37.4258 7.85396 37.3772 8.1022 37.3148C9.33212 36.9418 10.4843 36.3492 11.5031 35.5657C12.4269 34.9438 13.2965 34.2449 14.1025 33.4766C14.7986 32.797 15.1792 32.4243 15.2443 32.3585C16.0536 31.5485 16.75 30.836 17.3334 30.221C17.9167 29.6061 18.4512 29.0312 18.9368 28.4963C19.4226 27.9618 19.8761 27.4435 20.2972 26.9412C20.7183 26.439 21.1718 25.9128 21.6576 25.3628C21.8194 25.2337 21.8194 25.0879 21.6576 24.9254C21.4633 24.7311 21.3008 24.7311 21.1719 24.9254C20.6861 25.4768 20.2325 26.0029 19.8112 26.5038C19.3898 27.0048 18.9364 27.5149 18.4508 28.0343C17.965 28.553 17.4305 29.1199 16.8474 29.735C16.2642 30.3502 15.5678 31.0627 14.7582 31.8725L13.6648 32.9415C12.8695 33.7024 12.0168 34.4009 11.114 35.0306C10.333 35.5684 9.5033 36.032 8.63591 36.4154C7.83745 36.8054 6.93609 36.933 6.06077 36.7797C5.94053 36.7314 5.83265 36.6566 5.74508 36.5611C5.60114 36.3712 5.51658 36.1429 5.50207 35.905C5.45243 35.4529 5.45243 34.9967 5.50207 34.5446C5.59263 33.7677 5.76367 33.0024 6.01243 32.2608C6.52007 30.772 7.14553 29.326 7.88287 27.9366C8.77358 26.1874 9.91542 24.1143 11.3084 21.7173C14.5475 19.0624 17.2037 16.6983 19.2771 14.6249C21.3506 12.5514 22.9701 10.8347 24.1357 9.47458C25.1479 8.37772 26.0888 7.21729 26.9529 6.0004C27.5034 5.17435 27.8111 4.72899 27.876 4.66432C29.1711 2.72088 29.5598 1.36047 29.042 0.583098C28.9294 0.43616 28.7895 0.312335 28.63 0.218415C28.4861 0.138642 28.3308 0.081311 28.1696 0.0484056C27.993 0.0150145 27.8136 -0.0011744 27.6339 6.62424e-05C26.2408 0.162513 24.6536 0.939889 22.8723 2.33219C21.9619 3.03254 21.1014 3.79555 20.2972 4.61565C19.2105 5.72051 18.1808 6.87996 17.212 8.08951C16.094 9.46669 14.9036 11.0862 13.6408 12.9481C12.3781 14.81 11.0339 16.9561 9.60829 19.3865C8.34511 21.6212 7.24371 23.7428 6.30411 25.7511C5.91542 26.6256 5.53485 27.5245 5.16238 28.4476C4.80718 29.3213 4.49905 30.2134 4.23933 31.1201C4.00736 31.9225 3.84476 32.7433 3.75331 33.5736C3.66639 34.2553 3.70755 34.9473 3.87465 35.614C4.00105 35.9638 4.18135 36.2916 4.40901 36.5857C4.62958 36.8657 4.91243 37.0903 5.23505 37.2418C5.67821 37.4371 6.16022 37.5285 6.64413 37.5088C6.87973 37.508 7.11503 37.4917 7.3485 37.4601M17.9894 14.9405C15.9975 16.804 14.127 18.4802 12.3778 19.9692C13.3167 18.35 14.2484 16.8519 15.1729 15.4749C16.0974 14.098 16.8666 12.9884 17.4807 12.1464C17.9014 11.5959 18.4198 10.9077 19.0358 10.0816C19.6518 9.25558 20.3157 8.39709 21.0276 7.50615C21.7398 6.61565 22.4686 5.74116 23.214 4.88267C23.8862 4.09978 24.5997 3.35335 25.3515 2.64656C25.9101 2.10672 26.5298 1.63384 27.1979 1.23749C27.7484 0.930572 28.2018 0.890124 28.5583 1.11615C28.7201 1.73173 28.2991 2.78402 27.2952 4.273C26.9383 4.75881 26.5656 5.27706 26.1772 5.82775C25.8205 6.28177 25.4237 6.80002 24.9868 7.38251C24.5499 7.96499 24.0883 8.53191 23.602 9.08326C21.8408 11.1364 19.9672 13.0905 17.9901 14.9366M33.7086 24.7268C33.6115 24.8241 33.5143 24.9294 33.4172 25.0425C33.3186 25.1566 33.2226 25.2612 33.1255 25.3585C32.6069 25.9096 32.0724 26.4927 31.5221 27.1076C30.9719 27.7225 30.3726 28.3379 29.7244 28.9537C29.4328 29.2453 29.1089 29.5368 28.7526 29.8284C28.4604 30.0897 28.1443 30.3584 27.8043 30.6344C27.4888 30.8917 27.156 31.1269 26.8082 31.3384C26.2143 31.7651 25.5695 32.116 24.8888 32.3832C24.2305 32.6493 23.5327 32.8048 22.8237 32.8435C22.4139 32.8477 22.0136 32.72 21.6819 32.4792C21.5619 32.3756 21.4636 32.2493 21.3927 32.1075C21.3218 31.9657 21.2798 31.8113 21.2689 31.6531C21.2405 31.2684 21.2816 30.8816 21.3903 30.5114C21.5077 30.078 21.6617 29.6553 21.8506 29.248C22.4772 29.068 23.0806 28.8153 23.6484 28.495C24.2577 28.1595 24.8354 27.7697 25.3745 27.3302C25.8915 26.9104 26.3637 26.4382 26.7836 25.9211C27.1711 25.4501 27.4752 24.9163 27.6826 24.3427C27.9742 23.3709 27.9742 22.6421 27.6826 22.1563C27.5699 21.9433 27.3908 21.7728 27.1726 21.6706C27.0487 21.6282 26.9271 21.5796 26.8082 21.5249C26.0414 21.3616 25.2415 21.4734 24.5488 21.8406C23.8353 22.2022 23.1801 22.669 22.6053 23.2253C22.0942 23.7129 21.623 24.2408 21.1963 24.8037C20.8236 25.3064 20.6211 25.5899 20.5889 25.6541C20.5567 25.7184 20.419 25.9533 20.1759 26.3588C19.9032 26.8255 19.6677 27.3129 19.4715 27.8166C19.2392 28.4047 19.0682 29.0152 18.9611 29.6383C18.8455 30.2577 18.9044 30.897 19.1311 31.4848C19.5198 32.4884 20.4107 33.1362 21.8036 33.4282C21.9652 33.4602 22.1272 33.4846 22.2896 33.5012C22.4521 33.5179 22.6141 33.526 22.7757 33.5256C24.136 33.5256 25.7231 32.9263 27.5369 31.7278C28.1799 31.2599 28.7963 30.7567 29.3834 30.2204C29.8694 29.7663 30.144 29.5085 30.2091 29.443C30.8567 28.8281 31.464 28.2126 32.0312 27.5966C32.5983 26.9806 33.1409 26.3975 33.6589 25.8475C33.756 25.7184 33.8532 25.5969 33.9503 25.4831C34.0474 25.3694 34.1446 25.264 34.242 25.1671C34.2988 25.0961 34.3254 25.0056 34.3159 24.9151C34.3064 24.8247 34.2616 24.7416 34.1912 24.684C34.1208 24.6264 34.0305 24.5989 33.94 24.6075C33.8494 24.616 33.7659 24.66 33.7076 24.7298M23.213 26.8672C23.9251 25.8636 24.5243 25.0619 25.0108 24.4621C25.4972 23.8623 25.8778 23.4088 26.1525 23.1017C26.325 22.8852 26.5298 22.6966 26.7599 22.5427C26.8492 22.4899 26.9485 22.4563 27.0516 22.444C27.1243 22.5631 27.1738 22.6951 27.1972 22.8327C27.2303 23.0171 27.2385 23.2051 27.2216 23.3917C27.1909 23.6532 27.1171 23.9077 27.0032 24.1451C26.7243 24.8101 26.3286 25.4198 25.8349 25.9455C25.2522 26.5875 24.5815 27.1437 23.8427 27.5976C23.5832 27.76 23.3241 27.9058 23.0654 28.0349C22.8124 28.1619 22.5529 28.2755 22.288 28.3753C22.3834 28.1835 22.4887 27.9969 22.6037 27.8162C22.7168 27.6385 22.822 27.4683 22.9194 27.3059L23.213 26.8672ZM21.4639 36.0987C21.3271 36.0362 21.1738 36.0191 21.0266 36.05C20.935 36.0785 20.8517 36.1286 20.7836 36.1961C20.7178 36.2618 20.6543 36.3253 20.5892 36.3904C20.5413 36.4698 20.5101 36.5582 20.4976 36.6501C20.4851 36.742 20.4915 36.8355 20.5165 36.9248C20.5402 37.0205 20.5853 37.1096 20.6484 37.1853C20.7116 37.2611 20.791 37.3215 20.8809 37.3621C20.9501 37.3945 21.0263 37.4093 21.1026 37.405C21.179 37.4008 21.253 37.3777 21.3182 37.3378C21.4475 37.2566 21.5613 37.1839 21.6583 37.1194C21.5284 37.1194 21.5284 37.0537 21.6583 36.9251C21.6739 36.9406 21.6846 36.9604 21.689 36.9821C21.6933 37.0037 21.6911 37.0261 21.6826 37.0464C21.6657 37.0949 21.6901 37.0868 21.7556 37.0221C21.7227 36.9892 21.7388 36.9409 21.8043 36.8764C21.8013 36.7928 21.8178 36.7096 21.8526 36.6334C21.8671 36.5923 21.8702 36.548 21.8617 36.5053C21.8532 36.4625 21.8334 36.4228 21.8043 36.3904C21.7315 36.2539 21.61 36.1497 21.4639 36.0987ZM29.3837 35.3943C29.3183 35.3549 29.2443 35.332 29.168 35.3278C29.0918 35.3236 29.0157 35.3381 28.9463 35.37C28.8547 35.3984 28.7714 35.4485 28.7033 35.516C28.6376 35.5818 28.5718 35.6452 28.5086 35.7104C28.4607 35.7898 28.4295 35.8781 28.417 35.97C28.4045 36.0619 28.411 36.1554 28.436 36.2447C28.4563 36.3362 28.5008 36.4206 28.5649 36.489C28.629 36.5573 28.7103 36.6072 28.8003 36.6334C28.8688 36.6654 28.9434 36.682 29.019 36.682C29.0946 36.682 29.1692 36.6654 29.2377 36.6334C29.3548 36.5753 29.4685 36.5104 29.578 36.4391C29.4794 36.3404 29.4794 36.2766 29.578 36.2447C29.6109 36.2447 29.6182 36.2691 29.6024 36.3174C29.5866 36.3657 29.6099 36.3733 29.6754 36.3417C29.6425 36.3088 29.6589 36.2431 29.724 36.1474C29.721 36.0637 29.7377 35.9805 29.7727 35.9044C29.788 35.8713 29.7915 35.834 29.7827 35.7986C29.7738 35.7632 29.7531 35.732 29.724 35.71C29.6484 35.5703 29.5286 35.4594 29.3837 35.3943ZM18.3304 33.7666C18.25 33.7339 18.1771 33.701 18.1117 33.6679C17.9351 33.6354 17.754 33.6354 17.5774 33.6679L17.14 33.8139C17.0414 33.9126 16.9457 34.0159 16.8487 34.1296C16.7489 34.248 16.6818 34.3904 16.654 34.5427C16.6383 34.5726 16.6301 34.606 16.6301 34.6398C16.6301 34.6737 16.6383 34.707 16.654 34.737C16.6855 34.797 16.7022 34.8636 16.7027 34.9313C16.8072 35.0976 16.9385 35.2454 17.0914 35.3687C17.2619 35.4903 17.465 35.558 17.6744 35.563C17.7685 35.564 17.8611 35.5389 17.9417 35.4904C18.0223 35.442 18.1147 35.4168 18.2087 35.4177C18.3692 35.283 18.5013 35.1178 18.5974 34.9317C18.6259 34.8768 18.6503 34.82 18.6704 34.7617C18.6912 34.7035 18.7156 34.6467 18.7434 34.5916C18.7872 34.4722 18.792 34.342 18.757 34.2197C18.722 34.0975 18.6491 33.9895 18.5488 33.9113C18.487 33.8479 18.4124 33.7982 18.3301 33.7656M53.8464 33.6929C54.2191 33.1258 54.4539 32.7613 54.5511 32.5995C55.8617 32.1374 57.1039 31.5 58.2436 30.7048C59.1136 30.1416 59.9418 29.5164 60.7217 28.834C62.0028 27.6952 63.2041 26.4695 64.3169 25.1658C64.3474 25.1381 64.3719 25.1044 64.3888 25.0668C64.4058 25.0293 64.4149 24.9886 64.4156 24.9475C64.4148 24.9062 64.4056 24.8656 64.3886 24.828C64.3717 24.7904 64.3473 24.7567 64.3169 24.7288C64.1227 24.5345 63.9607 24.5345 63.8309 24.7288C62.6096 26.1449 61.2856 27.4691 59.8697 28.6906C58.4023 29.9654 56.7361 30.9912 54.9371 31.7275C56.2005 28.8775 56.4758 26.6911 55.7628 25.1681C55.558 24.6528 55.1914 24.218 54.7181 23.929C54.4735 23.7949 54.2221 23.6733 53.9651 23.5647C52.4103 22.9818 50.5479 23.7271 48.3778 25.8008C48.5081 25.6372 48.6297 25.4668 48.7421 25.2904C48.8549 25.1129 48.9766 24.9261 49.1065 24.7314C49.2364 24.5367 49.3814 24.3269 49.5438 24.0997C49.9439 23.5786 50.3013 23.0261 50.6126 22.4476C50.9359 21.8971 51.0331 21.4437 50.9042 21.0872C50.8426 20.9315 50.7609 20.7845 50.6612 20.6499C50.4017 20.3909 50.0619 20.3909 49.6418 20.6499C49.1827 20.9396 48.7589 21.2817 48.3788 21.6693C47.8304 22.2249 47.3114 22.8088 46.8237 23.4183C46.4023 23.9368 45.9326 24.5361 45.4146 25.2161C44.9615 25.7993 44.427 26.5038 43.8112 27.3299C43.1954 28.1559 42.5313 29.0876 41.8191 30.125C41.4346 29.9542 41.0364 29.8161 40.6287 29.7123C40.3299 29.6282 40.0109 29.6541 39.7296 29.7853C39.5773 29.8696 39.4447 29.9856 39.3409 30.1254C39.1929 30.3405 39.1086 30.5931 39.0979 30.8541C39.0495 31.7443 39.2337 32.6318 39.6323 33.4292C38.8869 34.6273 38.1177 35.8988 37.3245 37.2437C36.5313 38.5887 35.7621 39.9897 35.0167 41.4466L34.871 41.738C34.0813 41.4969 33.2658 41.3501 32.4416 41.3006C32.1566 41.3137 31.8764 41.3796 31.6155 41.495C31.4515 41.5653 31.3102 41.6798 31.2073 41.8256C31.1044 41.9714 31.0439 42.1429 31.0325 42.321C31.0151 42.4761 31.0371 42.6332 31.0966 42.7775C31.156 42.9218 31.2509 43.0488 31.3725 43.1467C31.7296 43.5674 32.5719 43.7455 33.8993 43.6811C33.0573 45.3976 32.377 46.9444 31.8585 48.3213C31.3943 49.5272 31.0049 50.7605 30.6925 52.0142C30.4591 52.948 30.2966 53.8981 30.2064 54.8564C30.1387 55.5522 30.155 56.2536 30.2551 56.9455C30.288 57.0747 30.3363 57.2858 30.4011 57.5772C30.4907 57.9235 30.6386 58.252 30.8385 58.5486C31.1127 58.9218 31.4594 59.2359 31.8579 59.472C32.2454 59.7105 32.6738 59.8751 33.1213 59.9576C33.6954 60.0457 34.2826 59.9786 34.822 59.7633C35.8263 59.4064 36.7414 58.6453 37.5672 57.4798C38.393 56.3144 39.0165 54.6948 39.4376 52.6209C39.7802 51.2232 39.8707 49.7755 39.705 48.346C39.5817 47.3403 39.3116 46.3581 38.9033 45.4308C38.5386 44.5897 38.0101 43.8295 37.3485 43.1947C37.997 43.0976 38.8797 43.0004 39.9966 42.9031C41.1136 42.8057 42.3851 42.7247 43.8112 42.66C45.2361 42.5943 46.7667 42.5614 48.4028 42.5614C50.0388 42.5614 51.6989 42.5943 53.383 42.66C55.4876 42.7574 57.4148 42.9108 59.1647 43.1204C60.7646 43.3055 62.3539 43.5731 63.9263 43.9221C67.2947 44.7642 69.5135 45.8822 70.5826 47.2763C71.5216 48.4424 71.5701 49.9161 70.7283 51.6975C70.6966 51.7284 70.675 51.7681 70.6663 51.8115C70.6576 51.8549 70.6623 51.8999 70.6796 51.9405C70.6936 51.9865 70.7186 52.0282 70.7526 52.0621C70.7866 52.096 70.8284 52.121 70.8743 52.1349C71.0686 52.264 71.2143 52.2155 71.3117 51.9892C72.2835 50.0131 72.2348 48.2963 71.1657 46.8389C69.9672 45.316 67.6188 44.1337 64.1206 43.2921C61.2707 42.6125 57.7076 42.1751 53.4314 41.98C51.7468 41.9142 50.1111 41.8814 48.5241 41.8814C46.9371 41.8814 45.4634 41.9142 44.1029 41.98C42.7423 42.0445 41.5114 42.1174 40.41 42.1987C39.3086 42.28 38.4179 42.369 37.7378 42.4657C38.3861 41.2996 39.042 40.166 39.7056 39.0648C40.3692 37.9637 40.9927 36.9434 41.5761 36.004C41.9862 36.3203 42.4255 36.5968 42.8881 36.8297C43.3304 37.0525 43.8065 37.2003 44.2972 37.2671C45.3105 37.4915 46.3568 37.5249 47.3824 37.3657C48.2387 37.2308 49.0777 37.0028 49.8845 36.6857C50.6941 36.379 51.4615 35.9708 52.1683 35.471C52.811 34.9649 53.376 34.3675 53.8454 33.6975M45.4646 32.7722C45.9587 32.9126 46.4621 33.0181 46.971 33.0879C47.2944 33.1523 47.6342 33.2171 47.9904 33.2822C48.3103 33.3503 48.6353 33.3909 48.9621 33.4036C49.3186 33.4193 49.6758 33.4112 50.0312 33.3792C49.4998 33.9763 48.9052 34.5139 48.2577 34.9826C47.6568 35.4196 46.9933 35.7633 46.2896 36.002C45.6095 36.2281 44.8882 36.3027 44.1762 36.2204C43.3964 36.1196 42.6536 35.8275 42.0141 35.37C42.2736 34.9487 42.5247 34.5519 42.7671 34.1796C43.0096 33.8074 43.2283 33.4753 43.4231 33.1836C43.65 32.8264 43.8767 32.5025 44.1032 32.2118C44.5314 32.4546 44.9884 32.6424 45.4636 32.7709M48.6701 26.4302C49.2385 25.873 49.8566 25.3688 50.5165 24.9238C50.9741 24.613 51.4728 24.3677 51.9983 24.1951C52.3662 24.0745 52.7536 24.025 53.14 24.0494C53.2913 24.0908 53.4379 24.1477 53.5774 24.2194C53.7489 24.3105 53.8855 24.4557 53.9661 24.6324C54.076 24.8932 54.1258 25.1755 54.1117 25.4581C54.0873 25.94 53.989 26.4152 53.8204 26.8672C53.4993 27.8522 53.0844 28.804 52.5813 29.7097C52.0144 30.7616 51.356 31.7615 50.6135 32.6979C50.3602 32.7648 50.0975 32.7894 49.8362 32.7705C49.5448 32.7537 49.2696 32.7294 49.0105 32.6979C48.6864 32.6652 48.3788 32.6323 48.0874 32.5992C47.4659 32.5212 46.8494 32.4076 46.241 32.2589C45.6196 32.1174 45.0165 31.9054 44.4432 31.6272C44.6374 31.3356 44.848 31.0279 45.0749 30.7041C45.2691 30.4443 45.4797 30.1529 45.7066 29.8297C45.9312 29.508 46.1745 29.1998 46.4353 28.9067C47.1268 28.0335 47.8737 27.2058 48.6714 26.4285M40.023 30.4128C40.0964 30.3702 40.1818 30.3531 40.266 30.3641C40.4206 30.3667 40.5746 30.383 40.7263 30.4128C40.975 30.4728 41.2127 30.5712 41.431 30.7044C40.9779 31.3518 40.5407 32.032 40.1193 32.7449C39.8876 32.1572 39.772 31.5301 39.7789 30.8985C39.8116 30.5744 39.8926 30.4124 40.022 30.4124M34.24 42.9478C33.6499 43.0234 33.0516 43.007 32.4666 42.8991C32.2388 42.8455 32.0186 42.7639 31.8109 42.6561C31.7451 42.6232 31.7122 42.5423 31.7122 42.4134C31.7205 42.3274 31.7553 42.2461 31.8119 42.1809C31.8685 42.1156 31.9439 42.0695 32.0279 42.0491C32.1463 42.0116 32.2685 41.9871 32.3922 41.9761C32.6037 41.9773 32.8148 41.9936 33.0239 42.0247C33.2184 42.0565 33.4452 42.0894 33.7043 42.1234C33.9853 42.1605 34.2619 42.2256 34.53 42.3177C34.4656 42.4793 34.3683 42.6899 34.2383 42.9494M32.5613 58.862C32.385 58.6536 32.2675 58.4021 32.2209 58.1333C32.1303 57.6694 32.0972 57.1961 32.1223 56.7242C32.1701 55.9415 32.3087 55.1671 32.5353 54.4164C32.9987 52.6442 33.608 50.9134 34.3571 49.2418C35.1513 47.4441 36.034 45.6383 37.0052 43.8245C37.531 44.5831 37.971 45.3978 38.3169 46.2536C38.6413 47.1319 38.8614 48.0452 38.973 48.9748C39.1146 50.142 39.0571 51.3249 38.803 52.4729C38.6383 53.2275 38.4108 53.967 38.1229 54.6837C37.8498 55.3756 37.5166 56.0422 37.1269 56.6758C36.7828 57.2389 36.3752 57.7605 35.9121 58.2306C35.5581 58.6141 35.1164 58.9059 34.6247 59.081C34.4344 59.1445 34.2395 59.1933 34.0417 59.227C33.8573 59.2601 33.6693 59.2682 33.4827 59.2513C33.2913 59.2389 33.1029 59.198 32.9236 59.13C32.7845 59.0679 32.6603 58.9769 32.5593 58.8629M83.3133 24.9738C82.8275 25.5249 82.374 26.0433 81.9529 26.5288C81.5318 27.0144 81.0783 27.5246 80.5925 28.0593C80.1067 28.5935 79.5722 29.1684 78.9891 29.784C78.4059 30.3996 77.7257 31.1121 76.9483 31.9215C76.527 32.3102 76.122 32.6828 75.7336 33.0395C75.3767 33.3629 74.988 33.7027 74.5675 34.0589C74.147 34.4152 73.726 34.7391 73.3044 35.0306C72.4426 35.624 71.5228 36.1286 70.5593 36.5367C70.1343 36.742 69.6727 36.8607 69.2014 36.8857C68.7301 36.9108 68.2585 36.8418 67.8141 36.6827C67.7118 36.648 67.6173 36.5933 67.5362 36.5219C67.4551 36.4505 67.3889 36.3637 67.3415 36.2666C67.294 36.1695 67.2663 36.064 67.2598 35.9561C67.2533 35.8482 67.2683 35.7401 67.3038 35.638C67.4689 35.0208 67.7402 34.4371 68.1055 33.9129C68.5736 33.205 69.1017 32.5386 69.6839 31.9211C70.3157 31.2415 70.9312 30.61 71.5303 30.0264C72.1295 29.4428 72.6556 28.9489 73.1088 28.5446C73.5621 28.1399 73.8213 27.905 73.8862 27.8399C74.0199 27.7434 74.1322 27.6202 74.2159 27.4781C74.2995 27.336 74.3528 27.178 74.3722 27.0142C74.3741 26.8989 74.3576 26.784 74.3235 26.6739C74.249 26.4657 74.1032 26.2905 73.9121 26.1794C73.7209 26.0683 73.4966 26.0283 73.2788 26.0665C72.7649 26.1185 72.2637 26.2582 71.797 26.4795C71.3796 26.6776 70.9812 26.9134 70.6066 27.1839C70.1695 27.4923 69.7565 27.8082 69.3676 28.1316C68.9136 28.4885 68.4439 28.8772 67.9585 29.2977C66.8242 30.1722 65.6663 31.0381 64.4846 31.8955C63.4384 32.6801 62.2847 33.3101 61.0591 33.7663C60.9373 33.8284 60.8059 33.8694 60.6704 33.8876C60.5549 33.9005 60.4409 33.9249 60.3301 33.9603C60.1144 33.9991 59.892 33.9644 59.6984 33.8616C59.4068 33.6672 59.4473 33.2542 59.8197 32.6226C60.2817 31.8734 60.819 31.1734 61.4232 30.5334C62.1201 29.7721 62.8813 29.0028 63.7069 28.2257C64.4087 27.5541 65.1467 26.9216 65.9177 26.3309C66.4527 25.9378 66.9134 25.4525 67.2781 24.8978C67.5044 24.4931 67.2938 24.1286 66.6464 23.8044C66.4052 23.6928 66.1412 23.639 65.8755 23.6475C65.6097 23.6559 65.3497 23.7263 65.116 23.8531C64.6901 24.0448 64.2901 24.2896 63.9256 24.5818C63.2123 25.1334 62.5607 25.7605 61.9822 26.4522C61.4472 27.0847 60.9523 27.75 60.5004 28.4443C60.096 29.0759 59.7802 29.6104 59.553 30.0477C59.3259 30.4851 59.1964 30.7362 59.1644 30.8011C59.1326 30.8656 59.0516 31.0356 58.9213 31.3111C58.7809 31.6166 58.6671 31.9335 58.5813 32.2585C58.484 32.6148 58.4349 32.9826 58.4353 33.3519C58.428 33.517 58.4544 33.6819 58.5129 33.8365C58.5715 33.9911 58.6608 34.1321 58.7757 34.251C58.9065 34.4032 59.0717 34.5222 59.2574 34.5982C59.4432 34.6742 59.6444 34.7051 59.8444 34.6883C60.3425 34.6676 60.8344 34.5692 61.3021 34.3966C62.0928 34.1154 62.8504 33.7488 63.5616 33.3033C64.3223 32.8335 65.0755 32.3233 65.821 31.7728C66.1771 31.5133 66.5169 31.2542 66.8404 30.9955C67.164 30.7368 67.4555 30.5101 67.7148 30.3154C68.0064 30.0883 68.2655 29.894 68.4922 29.7324C68.3026 29.9202 68.1391 30.1327 68.0062 30.3641C67.8418 30.5612 67.6954 30.7726 67.5688 30.9958C67.4388 31.222 67.293 31.4649 67.1315 31.7245C66.1914 33.3437 65.8187 34.6556 66.0134 35.66C66.062 35.9329 66.1698 36.1919 66.3293 36.4185C66.4888 36.6452 66.696 36.8342 66.9365 36.9721C67.4861 37.3709 68.1525 37.5759 68.8312 37.5551C69.3257 37.5382 69.8158 37.4565 70.289 37.3121C71.5079 36.9122 72.6558 36.3219 73.6902 35.563C74.208 35.2064 74.6857 34.8501 75.1232 34.4943C75.5608 34.1385 75.9414 33.8065 76.265 33.4983C76.5883 33.1898 76.8556 32.9307 77.0667 32.7209C77.2778 32.5111 77.3993 32.3896 77.431 32.3565C78.2404 31.5465 78.9368 30.834 79.5202 30.2191C80.1035 29.6041 80.638 29.0292 81.1236 28.4943C81.6094 27.9598 82.063 27.4497 82.4843 26.9639C82.9057 26.4781 83.3591 25.9597 83.8447 25.4088C83.8765 25.3751 83.9006 25.335 83.9155 25.2911C83.9304 25.2473 83.9358 25.2008 83.9311 25.1547C83.9265 25.1086 83.9121 25.0641 83.8888 25.0241C83.8655 24.9841 83.8338 24.9495 83.7961 24.9228C83.762 24.8918 83.7218 24.8684 83.678 24.854C83.6343 24.8395 83.588 24.8344 83.5422 24.839C83.4964 24.8436 83.452 24.8578 83.4121 24.8806C83.3721 24.9034 83.3373 24.9344 83.31 24.9715M63.2469 38.8689C63.1101 38.806 62.9568 38.789 62.8095 38.8202C62.7181 38.8487 62.6348 38.8986 62.5665 38.9659L62.3722 39.1602C62.3242 39.2396 62.293 39.328 62.2805 39.4199C62.268 39.5118 62.2745 39.6053 62.2995 39.6946C62.3243 39.7743 62.3652 39.8482 62.4196 39.9115C62.4741 39.9748 62.541 40.0263 62.6161 40.0627C62.6913 40.0991 62.7731 40.1198 62.8565 40.1233C62.94 40.1268 63.0233 40.1132 63.1012 40.0833C63.2182 40.0252 63.3318 39.9603 63.4412 39.8889C63.4157 39.8926 63.3897 39.8874 63.3675 39.8741C63.3454 39.8608 63.3286 39.8402 63.3199 39.8159C63.3035 39.7673 63.3275 39.7261 63.3929 39.6946C63.4573 39.6946 63.4817 39.7188 63.4659 39.7673C63.4491 39.8159 63.4573 39.8235 63.4902 39.7916C63.4902 39.7258 63.4978 39.6929 63.5146 39.6929C63.5313 39.6929 63.555 39.66 63.5876 39.5943C63.5882 39.5209 63.5963 39.4477 63.6119 39.3759C63.6285 39.3024 63.62 39.2254 63.5876 39.1573C63.5148 39.0208 63.3933 38.9167 63.2472 38.8659M72.5274 38.5256C72.3906 38.4629 72.2373 38.4459 72.09 38.4769C71.9984 38.5052 71.9151 38.5553 71.847 38.6229C71.7812 38.6887 71.7155 38.7518 71.6527 38.8172C71.6047 38.8966 71.5734 38.985 71.5609 39.0769C71.5483 39.1688 71.5547 39.2623 71.5797 39.3516C71.6 39.4431 71.6445 39.5274 71.7086 39.5958C71.7727 39.6642 71.854 39.7141 71.944 39.7403C72.0125 39.7723 72.0871 39.7888 72.1627 39.7888C72.2383 39.7888 72.3129 39.7723 72.3814 39.7403C72.4985 39.6821 72.6121 39.6172 72.7217 39.5459C72.6891 39.5459 72.6648 39.5216 72.6491 39.4729C72.6323 39.4246 72.6566 39.3835 72.7217 39.3516C72.7546 39.3516 72.7622 39.3759 72.7461 39.4246C72.73 39.4733 72.7536 39.4805 72.8191 39.4489C72.7862 39.416 72.8023 39.3503 72.8674 39.2546C72.8696 39.1793 72.8861 39.105 72.9161 39.0359C72.9323 38.999 72.9363 38.9579 72.9275 38.9186C72.9188 38.8793 72.8977 38.8438 72.8674 38.8172C72.7948 38.6807 72.6734 38.5765 72.5274 38.5256ZM60.0887 36.7314C60.0057 36.7037 59.9246 36.6707 59.8457 36.6328C59.6854 36.5997 59.52 36.5997 59.3597 36.6328C59.261 36.6656 59.1821 36.689 59.1167 36.7054C59.0494 36.7226 58.9842 36.7471 58.9223 36.7784C58.8237 36.8771 58.728 36.9803 58.631 37.0941C58.5312 37.2125 58.4641 37.3548 58.4363 37.5071C58.4206 37.5371 58.4124 37.5705 58.4124 37.6043C58.4124 37.6381 58.4206 37.6715 58.4363 37.7015C58.4678 37.7616 58.4845 37.8283 58.485 37.8962C58.5465 37.9565 58.6033 38.0215 58.655 38.0905C58.7167 38.1668 58.7906 38.2325 58.8737 38.2848C58.9492 38.3629 59.0398 38.4247 59.1401 38.4665C59.2404 38.5083 59.3481 38.5292 59.4567 38.5279C59.5553 38.495 59.6435 38.4621 59.7237 38.4292C59.7929 38.3994 59.8671 38.383 59.9424 38.3809C60.1802 38.2245 60.3595 37.9938 60.4524 37.7248C60.4732 37.6667 60.4975 37.6099 60.5254 37.5548C60.5708 37.3874 60.5509 37.2089 60.4697 37.0556C60.3885 36.9023 60.2521 36.7856 60.0881 36.7291M89.289 36.2917C88.7416 36.521 88.1717 36.6921 87.5886 36.8021C87.1795 36.8832 86.7585 36.8832 86.3495 36.8021C86.0452 36.7365 85.7565 36.6128 85.4991 36.4378C84.8506 35.9837 84.6643 34.9958 84.9401 33.4739C85.2159 31.9521 85.9528 29.9601 87.1509 27.4979C87.734 26.2674 87.985 25.1985 87.9039 24.2911C87.8076 23.3224 87.5703 22.373 87.1995 21.4729C87.1338 21.3111 87.0782 21.1655 87.0295 21.0356C86.977 20.8934 86.9364 20.7471 86.9082 20.5982C87.2621 19.8594 87.5625 19.0962 87.8072 18.3144C88.0623 17.4858 88.2652 16.642 88.4146 15.788C88.4661 15.5725 88.4991 15.353 88.5132 15.1319C88.545 14.7677 88.5368 14.401 88.4889 14.0385C88.443 13.6595 88.3364 13.2903 88.1732 12.9452C88.1014 12.7843 87.9942 12.6419 87.8596 12.5283C87.725 12.4148 87.5665 12.3331 87.3959 12.2894C86.8447 12.1921 86.3426 12.4188 85.8895 12.9695C85.3383 13.6491 85.0306 14.637 84.9664 15.9333C84.9365 16.4536 84.9696 16.9757 85.065 17.4881C85.1423 18.0036 85.2477 18.5145 85.3807 19.0185C85.5355 19.6079 85.7726 20.1724 86.0851 20.6956C85.8073 21.2875 85.4824 21.8563 85.1137 22.3963C84.8221 22.8503 84.5468 23.2715 84.2877 23.6597C84.0285 24.048 83.8019 24.3719 83.6076 24.6314C83.3966 24.9348 83.1696 25.2267 82.9276 25.5058C82.7985 25.6356 82.7985 25.7976 82.9276 25.9918C83.1218 26.1861 83.2838 26.1699 83.4136 25.9432C83.4454 25.9114 83.6883 25.6117 84.1423 25.0441C84.7038 24.3217 85.2229 23.5673 85.6971 22.7847C85.8262 22.5904 85.9476 22.388 86.0614 22.1773C86.1752 21.9666 86.2967 21.7481 86.4258 21.5216C86.4415 21.8341 86.4004 22.1468 86.3044 22.4447C86.0643 23.2279 85.7637 23.9914 85.4054 24.7281C85.1785 25.2139 84.9194 25.8132 84.628 26.5259C84.3217 27.281 84.0541 28.0513 83.8263 28.8337C83.5842 29.6543 83.3974 30.4902 83.2673 31.3358C83.139 32.131 83.1145 32.9395 83.1946 33.7409C83.2643 34.4679 83.488 35.1718 83.8506 35.8057C84.2325 36.4434 84.8128 36.9383 85.5027 37.2148C85.8324 37.3694 86.1854 37.4679 86.5474 37.5065C86.8625 37.5386 87.1801 37.5386 87.4952 37.5065C87.8254 37.4793 88.1513 37.4141 88.4666 37.3121C89.6966 36.9392 90.8489 36.3466 91.8677 35.563C92.3856 35.2064 92.8634 34.8501 93.3012 34.4943C93.7389 34.1385 94.1276 33.8065 94.4672 33.4983C94.8072 33.1898 95.0745 32.9307 95.2689 32.7209C95.4634 32.5111 95.5767 32.3896 95.6089 32.3565C96.4181 31.5465 97.1146 30.834 97.6984 30.2191C98.2822 29.6041 98.8152 29.0299 99.2975 28.4963C99.7833 27.9618 100.237 27.4517 100.658 26.9659C101.079 26.4801 101.533 25.9617 102.018 25.4108C102.213 25.2166 102.213 25.0545 102.018 24.9248C101.824 24.7305 101.662 24.7467 101.532 24.9734C101.047 25.5246 100.593 26.0429 100.172 26.5285C99.7508 27.0141 99.2973 27.5242 98.8115 28.0589C98.3257 28.5932 97.7912 29.1681 97.2081 29.7837C96.6249 30.3993 95.9285 31.1118 95.1186 31.9211C94.6973 32.3416 94.2763 32.7303 93.8556 33.0872C93.4989 33.4106 93.1021 33.7504 92.6652 34.1066C92.2283 34.4629 91.8315 34.7705 91.4748 35.0297C90.7986 35.5359 90.0647 35.9599 89.2883 36.2927M86.2755 17.6857C86.2145 16.9391 86.2477 16.1879 86.3742 15.4496C86.4345 14.9291 86.5486 14.4162 86.7145 13.9192C86.792 13.6716 86.9156 13.4408 87.0788 13.2391C87.1311 13.1847 87.1968 13.1448 87.2692 13.1235C87.3417 13.1022 87.4184 13.1003 87.4919 13.1178C87.5637 13.1601 87.6264 13.2163 87.6764 13.283C87.7264 13.3497 87.7627 13.4257 87.7832 13.5065C87.8591 13.7416 87.8925 13.9884 87.8819 14.2352C87.8732 14.6739 87.8402 15.1118 87.7832 15.5469C87.6861 16.1301 87.5728 16.6645 87.4432 17.1503C87.3136 17.6362 87.184 18.0577 87.0542 18.4151C86.9333 18.8127 86.7873 19.2021 86.6168 19.5811C86.4533 18.9596 86.3396 18.326 86.2768 17.6864M114.117 24.7314C114.02 24.8287 113.922 24.934 113.825 25.0471C113.727 25.1612 113.631 25.2658 113.534 25.3631C113.015 25.9142 112.48 26.4973 111.93 27.1122C111.38 27.7271 110.781 28.3425 110.132 28.9583C109.841 29.2499 109.517 29.5414 109.161 29.833C108.869 30.0919 108.554 30.3592 108.213 30.6347C107.898 30.8921 107.565 31.1275 107.217 31.3391C106.623 31.7658 105.979 32.1167 105.298 32.3838C104.64 32.6499 103.942 32.8054 103.233 32.8442C102.823 32.8484 102.423 32.7206 102.091 32.4798C101.971 32.3763 101.873 32.25 101.802 32.1082C101.731 31.9664 101.689 31.812 101.678 31.6538C101.65 31.269 101.691 30.8823 101.8 30.5121C101.917 30.0786 102.071 29.656 102.26 29.2487C102.887 29.0687 103.49 28.8159 104.058 28.4956C104.667 28.1597 105.244 27.7694 105.783 27.3296C106.3 26.9097 106.772 26.4375 107.192 25.9205C107.579 25.4495 107.883 24.9156 108.091 24.3421C108.382 23.3702 108.382 22.6414 108.091 22.1556C107.978 21.9425 107.799 21.7719 107.581 21.6696C107.457 21.6272 107.335 21.5785 107.216 21.5239C106.449 21.3607 105.65 21.4724 104.957 21.8396C104.243 22.2012 103.588 22.668 103.013 23.2243C102.502 23.712 102.031 24.2398 101.604 24.8028C101.232 25.3054 101.029 25.5889 100.997 25.6531C100.965 25.7174 100.827 25.9523 100.584 26.3578C100.311 26.8246 100.076 27.312 99.8796 27.8156C99.6473 28.4037 99.4762 29.0142 99.3692 29.6374C99.2537 30.2567 99.3126 30.896 99.5392 31.4838C99.9279 32.4874 100.819 33.1352 102.212 33.4272C102.373 33.4592 102.535 33.4836 102.698 33.5002C102.86 33.5169 103.022 33.525 103.184 33.5246C104.544 33.5246 106.131 32.9253 107.945 31.7268C108.588 31.2592 109.205 30.7563 109.792 30.2204C110.278 29.7663 110.552 29.5085 110.617 29.443C111.265 28.8281 111.872 28.2126 112.44 27.5966C113.007 26.9806 113.549 26.3975 114.067 25.8475C114.164 25.7184 114.262 25.5969 114.359 25.4831C114.456 25.3694 114.553 25.264 114.65 25.1671C114.68 25.1321 114.702 25.0916 114.715 25.048C114.729 25.0044 114.734 24.9586 114.729 24.9132C114.725 24.8677 114.712 24.8236 114.69 24.7833C114.669 24.743 114.639 24.7074 114.604 24.6785C114.569 24.6496 114.528 24.6279 114.484 24.6149C114.441 24.6018 114.395 24.5975 114.349 24.6023C114.304 24.607 114.26 24.6208 114.22 24.6426C114.18 24.6645 114.145 24.6941 114.116 24.7298M103.621 26.8672C104.333 25.8636 104.932 25.0619 105.419 24.4621C105.905 23.8623 106.286 23.4088 106.561 23.1017C106.733 22.8852 106.938 22.6966 107.168 22.5427C107.257 22.4899 107.357 22.4563 107.46 22.444C107.533 22.5631 107.582 22.695 107.605 22.8327C107.638 23.0171 107.647 23.2051 107.63 23.3917C107.599 23.6532 107.525 23.9078 107.411 24.1451C107.133 24.8099 106.738 25.4196 106.246 25.9455C105.663 26.5875 104.993 27.1438 104.254 27.5976C103.994 27.76 103.735 27.9058 103.476 28.0349C103.223 28.1619 102.964 28.2755 102.699 28.3753C102.794 28.1835 102.9 27.9969 103.015 27.8162C103.128 27.6385 103.233 27.4683 103.33 27.3059L103.621 26.8672ZM101.872 36.0987C101.735 36.0362 101.582 36.0191 101.435 36.05C101.343 36.0785 101.26 36.1286 101.192 36.1961C101.126 36.2618 101.062 36.3253 100.997 36.3904C100.949 36.4698 100.918 36.5582 100.906 36.6501C100.893 36.742 100.9 36.8355 100.925 36.9248C100.948 37.0204 100.994 37.1095 101.057 37.1853C101.12 37.261 101.199 37.3215 101.289 37.3621C101.358 37.3945 101.434 37.4093 101.511 37.405C101.587 37.4008 101.661 37.3777 101.726 37.3378C101.856 37.2566 101.969 37.1839 102.066 37.1194C101.936 37.1194 101.936 37.0537 102.066 36.9251C102.082 36.9406 102.093 36.9604 102.097 36.9821C102.101 37.0037 102.099 37.0261 102.091 37.0464C102.074 37.0949 102.098 37.0868 102.163 37.0221C102.131 36.9897 102.147 36.9411 102.212 36.8764C102.209 36.7927 102.226 36.7095 102.261 36.6334C102.275 36.5923 102.278 36.548 102.27 36.5053C102.261 36.4625 102.241 36.4229 102.212 36.3904C102.139 36.2538 102.018 36.1497 101.872 36.0987M109.791 35.3943C109.726 35.3549 109.652 35.332 109.576 35.3278C109.5 35.3236 109.423 35.3381 109.354 35.37C109.263 35.3984 109.179 35.4485 109.111 35.516C109.045 35.5818 108.98 35.6452 108.917 35.7104C108.869 35.7897 108.838 35.8781 108.825 35.97C108.812 36.0619 108.819 36.1554 108.844 36.2447C108.864 36.3362 108.909 36.4206 108.973 36.489C109.037 36.5574 109.118 36.6073 109.208 36.6334C109.277 36.6654 109.351 36.682 109.427 36.682C109.502 36.682 109.577 36.6654 109.645 36.6334C109.763 36.5753 109.876 36.5104 109.986 36.4391C109.887 36.3404 109.887 36.2766 109.986 36.2447C110.019 36.2447 110.026 36.2691 110.01 36.3174C109.994 36.3657 110.018 36.3733 110.083 36.3417C110.05 36.3088 110.066 36.2431 110.131 36.1474C110.129 36.0637 110.145 35.9805 110.18 35.9044C110.196 35.8713 110.199 35.834 110.19 35.7986C110.181 35.7632 110.161 35.7319 110.131 35.71C110.056 35.5703 109.936 35.4594 109.791 35.3943ZM98.7378 33.7666C98.6574 33.7339 98.5845 33.701 98.5192 33.6679C98.3425 33.6354 98.1614 33.6354 97.9848 33.6679L97.5475 33.8139C97.4488 33.9126 97.3528 34.0159 97.2558 34.1296C97.1561 34.248 97.0891 34.3904 97.0614 34.5427C97.0456 34.5726 97.0374 34.606 97.0374 34.6398C97.0374 34.6737 97.0456 34.707 97.0614 34.737C97.0927 34.797 97.1093 34.8636 97.1098 34.9313C97.2143 35.0976 97.3457 35.2453 97.4985 35.3687C97.669 35.4903 97.8721 35.558 98.0815 35.563C98.1756 35.5641 98.2682 35.5389 98.3488 35.4904C98.4294 35.442 98.5218 35.4168 98.6158 35.4177C98.7764 35.2831 98.9085 35.1179 99.0045 34.9317C99.0329 34.8768 99.0573 34.82 99.0775 34.7617C99.0982 34.7035 99.1224 34.6467 99.1502 34.5916C99.194 34.4723 99.1988 34.3421 99.1639 34.2198C99.129 34.0975 99.0561 33.9895 98.9559 33.9113C98.894 33.8479 98.8195 33.7982 98.7372 33.7656"></path>
<path fill="#382710" d="M3.42049 57.9448C3.8297 57.9599 4.23876 57.9111 4.63292 57.8001C4.67814 57.79 4.7192 57.7663 4.75059 57.7322C4.78198 57.6981 4.80219 57.6553 4.80852 57.6094C4.87858 57.3263 4.92695 57.0383 4.95321 56.7478C4.95321 56.6945 4.92263 56.6334 4.87692 56.6334C4.82365 56.6334 4.80819 56.664 4.79306 56.7633C4.75176 56.9243 4.67287 57.0733 4.56288 57.198C4.29586 57.4939 3.96801 57.541 3.37314 57.541C3.08584 57.5318 2.80327 57.4654 2.54196 57.3456C2.28065 57.2259 2.04585 57.0552 1.85131 56.8436C1.65677 56.632 1.50639 56.3837 1.40898 56.1133C1.31157 55.8429 1.26909 55.5557 1.28402 55.2687C1.28402 54.6357 1.40602 54.0105 1.90158 53.5837C2.26246 53.3069 2.71437 53.1762 3.16728 53.2177C3.6315 53.1814 4.09286 53.3171 4.46357 53.5988C4.6217 53.7606 4.71416 53.9753 4.72302 54.2013C4.72302 54.2851 4.73815 54.3384 4.79175 54.3384C4.85258 54.3384 4.8756 54.2697 4.88317 54.1783C4.89073 54.0484 4.89073 53.6903 4.90618 53.4768C4.92131 53.2467 4.93677 53.1717 4.93677 53.1184C4.93677 53.0803 4.91375 53.0497 4.83812 53.0421C4.64081 53.0191 4.41852 52.9734 4.16695 52.9356C3.84366 52.8896 3.51751 52.8666 3.19096 52.8668C2.42012 52.8153 1.6588 53.0609 1.06337 53.5531C0.810742 53.7912 0.61042 54.0793 0.475143 54.399C0.339866 54.7187 0.272594 55.063 0.277604 55.4101C0.282615 55.7572 0.359798 56.0995 0.504246 56.4152C0.648694 56.7308 0.857247 57.013 1.11664 57.2437C1.77471 57.7465 2.59187 57.9955 3.41852 57.9451M12.8204 55.0707C12.8141 55.0717 12.8077 55.0712 12.8017 55.0692C12.7957 55.0672 12.7902 55.0638 12.7858 55.0593C12.7813 55.0549 12.778 55.0494 12.7761 55.0433C12.7741 55.0373 12.7736 55.0309 12.7746 55.0247V54.8876C12.7746 53.904 12.7746 53.6676 12.7898 53.4617C12.8049 53.2315 12.8585 53.1414 13.0413 53.1108C13.1039 53.097 13.1677 53.0893 13.2317 53.0878C13.3159 53.0878 13.3537 53.0648 13.3537 53.0191C13.3537 52.9734 13.308 52.9583 13.2163 52.9583C12.9493 52.9583 12.4843 52.9734 12.3241 52.9734C12.1413 52.9734 11.6993 52.9583 11.3406 52.9583C11.2492 52.9583 11.1959 52.9734 11.1959 53.0191C11.1959 53.0648 11.2416 53.0878 11.3103 53.0878C11.3999 53.0858 11.4894 53.0935 11.5773 53.1108C11.7911 53.172 11.8519 53.2407 11.8671 53.4617C11.8746 53.6676 11.8746 53.8504 11.8746 54.8343V55.978C11.8746 56.5729 11.8746 57.0839 11.844 57.3591C11.821 57.5495 11.7832 57.6718 11.6467 57.7021C11.5692 57.7192 11.49 57.727 11.4106 57.7251C11.3264 57.7251 11.3038 57.7633 11.3038 57.7938C11.3038 57.8396 11.3495 57.8626 11.4336 57.8626C11.7007 57.8626 12.1426 57.8396 12.2952 57.8396C12.4859 57.8396 12.9509 57.8626 13.3856 57.8626C13.4695 57.8626 13.5228 57.8396 13.5228 57.7938C13.5228 57.7633 13.4922 57.7251 13.4162 57.7251C13.3015 57.7253 13.1869 57.7176 13.0732 57.7021C12.8759 57.6715 12.8368 57.5495 12.8138 57.3667C12.7832 57.0845 12.7756 56.5886 12.7756 55.9941V55.4985C12.7756 55.468 12.7987 55.4604 12.8213 55.4604H15.3534C15.3633 55.461 15.3727 55.4652 15.3797 55.4723C15.3867 55.4793 15.3909 55.4886 15.3916 55.4985V55.9941C15.3916 56.589 15.3916 57.0845 15.361 57.3591C15.338 57.5495 15.3001 57.6718 15.1637 57.7021C15.0836 57.7196 15.0016 57.7273 14.9197 57.7251C14.8434 57.7251 14.8128 57.7633 14.8128 57.7938C14.8128 57.8396 14.8661 57.8626 14.9578 57.8626C15.2169 57.8626 15.6898 57.8396 15.8421 57.8396C16.0252 57.8396 16.4669 57.8626 16.9022 57.8626C16.9861 57.8626 17.0394 57.8396 17.0394 57.7938C17.0394 57.7633 17.0012 57.7251 16.9328 57.7251C16.8181 57.7256 16.7035 57.7179 16.5898 57.7021C16.384 57.6715 16.3458 57.5495 16.3228 57.3667C16.2922 57.0845 16.2922 56.5735 16.2922 55.9787V54.8349C16.2922 53.8514 16.2922 53.6682 16.3074 53.4624C16.3225 53.2322 16.3761 53.1421 16.5514 53.1115C16.6163 53.098 16.6824 53.0903 16.7487 53.0885C16.825 53.0885 16.8707 53.0655 16.8707 53.0198C16.8707 52.974 16.8246 52.9589 16.7257 52.9589C16.4662 52.9589 16.0242 52.974 15.8638 52.974C15.6885 52.974 15.2156 52.9589 14.8572 52.9589C14.7585 52.9589 14.7125 52.974 14.7125 53.0198C14.7125 53.0655 14.7506 53.0885 14.8269 53.0885C14.914 53.0868 15.001 53.0945 15.0864 53.1115C15.3001 53.1727 15.361 53.2414 15.3761 53.4624C15.3837 53.6682 15.3912 53.9047 15.3912 54.8882V55.0253C15.3912 55.0638 15.3682 55.0714 15.3531 55.0714L12.8204 55.0707ZM25.9131 57.9451C27.6441 57.9451 28.7266 56.7787 28.7266 55.2917C28.7266 53.8047 27.6744 52.8668 25.9818 52.8668C23.9456 52.8668 23.1679 54.3003 23.1679 55.4061C23.1679 56.5571 23.9608 57.9451 25.9131 57.9451ZM26.1873 57.5942C24.9216 57.5942 24.1591 56.542 24.1591 55.2075C24.1591 53.6061 25.0361 53.2098 25.7832 53.2098C26.8661 53.2098 27.7276 54.0941 27.7276 55.5278C27.7276 57.3733 26.6602 57.5942 26.1873 57.5942ZM45.8848 57.9451C46.294 57.9602 46.7031 57.9114 47.0972 57.8004C47.1424 57.7903 47.1834 57.7666 47.2148 57.7325C47.2461 57.6984 47.2662 57.6556 47.2725 57.6097C47.3428 57.3266 47.3913 57.0386 47.4175 56.7481C47.4175 56.6949 47.3869 56.6337 47.3412 56.6337C47.2876 56.6337 47.2725 56.6643 47.257 56.7636C47.2159 56.9247 47.137 57.0737 47.0269 57.1983C46.7598 57.4943 46.432 57.5413 45.8371 57.5413C45.5498 57.5321 45.2672 57.4657 45.0059 57.346C44.7446 57.2262 44.5098 57.0556 44.3152 56.844C44.1206 56.6324 43.9702 56.3841 43.8728 56.1137C43.7753 55.8432 43.7328 55.5561 43.7477 55.269C43.7477 54.636 43.8697 54.0109 44.3652 53.584C44.7261 53.3072 45.178 53.1766 45.6309 53.218C46.0952 53.1818 46.5565 53.3174 46.9272 53.5992C47.0854 53.7609 47.1778 53.9756 47.1867 54.2016C47.1867 54.2855 47.2018 54.3387 47.2554 54.3387C47.3166 54.3387 47.3396 54.27 47.3472 54.1786C47.3547 54.0487 47.3547 53.6906 47.3702 53.4772C47.3853 53.247 47.4008 53.172 47.4008 53.1187C47.4008 53.0806 47.3777 53.05 47.3021 53.0424C47.1048 53.0194 46.8825 52.9737 46.6309 52.9359C46.3077 52.8899 45.9815 52.8669 45.6549 52.8672C44.8842 52.8157 44.123 53.0613 43.5277 53.5535C43.2751 53.7916 43.0747 54.0796 42.9395 54.3993C42.8042 54.719 42.7369 55.0634 42.7419 55.4105C42.7469 55.7576 42.8241 56.0998 42.9686 56.4155C43.113 56.7312 43.3216 57.0133 43.581 57.244C44.239 57.7468 45.0562 57.9958 45.8828 57.9454M56.3521 57.9454C58.0831 57.9454 59.166 56.779 59.166 55.292C59.166 53.805 58.1137 52.8672 56.4208 52.8672C54.385 52.8672 53.6073 54.3006 53.6073 55.4065C53.6073 56.5574 54.4001 57.9454 56.3521 57.9454ZM56.6267 57.5946C55.361 57.5946 54.5984 56.5423 54.5984 55.2079C54.5984 53.6064 55.4751 53.2102 56.2225 53.2102C57.3054 53.2102 58.167 54.0944 58.167 55.5281C58.167 57.3736 57.0995 57.5946 56.6267 57.5946ZM66.8065 54.8343C66.8065 53.8507 66.8065 53.6676 66.8217 53.4617C66.8368 53.2315 66.8904 53.1414 67.0732 53.1108C67.1589 53.0956 67.2457 53.0879 67.3327 53.0878C67.4165 53.0878 67.4547 53.0648 67.4547 53.0191C67.4547 52.9734 67.4086 52.9583 67.3097 52.9583C67.0502 52.9583 66.5014 52.9734 66.3412 52.9734C66.1584 52.9734 65.7312 52.9583 65.4185 52.9583C65.3199 52.9583 65.2738 52.9734 65.2738 53.0191C65.2738 53.0648 65.312 53.0878 65.3883 53.0878C65.4627 53.0863 65.537 53.094 65.6096 53.1108C65.8233 53.172 65.8841 53.2407 65.8993 53.4617C65.9068 53.6676 65.9068 53.8504 65.9068 54.8343V55.978C65.9068 56.5729 65.9068 57.0839 65.8763 57.3591C65.8532 57.5495 65.8154 57.6718 65.679 57.7021C65.6014 57.7193 65.522 57.727 65.4425 57.7251C65.3587 57.7251 65.336 57.7633 65.336 57.7938C65.336 57.8396 65.3817 57.8626 65.4655 57.8626C65.603 57.8626 65.7707 57.855 65.9308 57.8474C66.091 57.8474 66.236 57.8399 66.312 57.8399C66.5865 57.8399 66.8687 57.8474 67.2041 57.855C67.5395 57.8701 67.9276 57.878 68.409 57.878C68.7598 57.878 68.7901 57.8474 68.8365 57.7028C68.8883 57.4565 68.9213 57.2066 68.9351 56.9553C68.9351 56.879 68.92 56.8106 68.8743 56.8106C68.821 56.8106 68.8056 56.8488 68.798 56.9093C68.7791 57.0518 68.7211 57.1864 68.6303 57.298C68.4626 57.4736 68.2028 57.4811 67.845 57.4811C67.3264 57.4811 67.067 57.443 66.9529 57.344C66.8082 57.222 66.8082 56.8103 66.8082 55.979L66.8065 54.8343ZM77.6254 56.222C77.6404 56.2202 77.6555 56.2239 77.6681 56.2322C77.6807 56.2406 77.6899 56.2532 77.6941 56.2677L78.2123 57.5791C78.2193 57.5924 78.2233 57.6071 78.2239 57.6221C78.2246 57.6371 78.2219 57.6521 78.2161 57.666C78.2103 57.6798 78.2015 57.6922 78.1903 57.7023C78.1791 57.7123 78.1659 57.7198 78.1515 57.7241C78.0828 57.7317 78.0676 57.7547 78.0676 57.7929C78.0676 57.8386 78.1439 57.8386 78.2649 57.8461C78.8292 57.8613 79.3172 57.8613 79.5537 57.8613C79.8052 57.8613 79.8434 57.8461 79.8434 57.7925C79.8434 57.7467 79.8129 57.7238 79.752 57.7238C79.6676 57.7227 79.5835 57.715 79.5004 57.7008C79.3784 57.6778 79.1877 57.5939 78.9285 57.0069C78.5011 56.023 77.3807 53.3999 77.2206 53.0418C77.1518 52.8971 77.1219 52.8359 77.0232 52.8359C76.9545 52.8359 76.9012 52.9122 76.8259 53.0951L75.0719 57.1441C74.9348 57.4729 74.8204 57.6702 74.5155 57.7159C74.4547 57.7159 74.3781 57.7235 74.3182 57.7235C74.3085 57.7219 74.2985 57.7225 74.2891 57.7253C74.2796 57.728 74.2709 57.7329 74.2636 57.7395C74.2562 57.7461 74.2505 57.7543 74.2467 57.7634C74.243 57.7725 74.2413 57.7824 74.2419 57.7922C74.2419 57.8455 74.2801 57.8609 74.3639 57.8609C74.7148 57.8609 75.0729 57.8379 75.142 57.8379C75.3554 57.8379 75.6681 57.8609 75.8891 57.8609C75.9578 57.8609 75.9956 57.8458 75.9956 57.7922C75.9956 57.7541 75.9805 57.7235 75.897 57.7235H75.7983C75.5925 57.7235 75.5313 57.6547 75.5313 57.5403C75.5408 57.4034 75.5742 57.2691 75.63 57.1437L75.9884 56.2667C76.0035 56.2286 76.0114 56.221 76.0496 56.221L77.6254 56.222ZM76.1844 55.8636C76.1614 55.8636 76.1462 55.8484 76.1614 55.8178L76.8095 54.2013C76.8171 54.1783 76.8246 54.1404 76.8476 54.1404C76.8628 54.1404 76.8707 54.1786 76.8782 54.2013L77.5112 55.8254C77.5188 55.8484 77.5112 55.8636 77.4807 55.8636H76.1844ZM86.4632 55.978C86.4632 56.5729 86.4632 57.0839 86.4326 57.3591C86.4096 57.5495 86.3718 57.6718 86.2354 57.7021C86.1579 57.7197 86.0786 57.7274 85.9992 57.7251C85.9151 57.7251 85.8924 57.7633 85.8924 57.7938C85.8924 57.8396 85.9381 57.8626 86.0223 57.8626C86.2889 57.8626 86.7457 57.8396 86.8989 57.8396C87.0897 57.8396 87.5395 57.8626 87.9818 57.8626C88.0581 57.8626 88.1114 57.8396 88.1114 57.7938C88.1114 57.7633 88.0808 57.7251 88.0048 57.7251C87.8901 57.7253 87.7755 57.7176 87.6618 57.7021C87.4645 57.6715 87.4254 57.5495 87.4024 57.3667C87.3718 57.0845 87.3643 56.5735 87.3643 55.9787V53.3555L88.2104 53.3706C88.8128 53.3782 88.9884 53.5765 89.0035 53.7442L89.0111 53.8129C89.0186 53.9116 89.0341 53.9425 89.0874 53.9425C89.1255 53.9425 89.1406 53.9043 89.1482 53.8359C89.1482 53.6682 89.1633 53.1878 89.1633 53.0503C89.1633 52.9517 89.1558 52.9132 89.1101 52.9132C89.087 52.9132 89.0338 52.9283 88.9272 52.9438C88.7757 52.9657 88.6226 52.976 88.4695 52.9744H85.7474C85.5234 52.9761 85.2994 52.9659 85.0765 52.9438C84.9088 52.9208 84.8401 52.8675 84.7868 52.8675C84.7487 52.8675 84.726 52.9056 84.7105 52.9895C84.6951 53.0428 84.5655 53.6682 84.5655 53.7748C84.5655 53.8435 84.5806 53.8816 84.6263 53.8816C84.6721 53.8816 84.6872 53.8511 84.7026 53.7978C84.7282 53.7182 84.7668 53.6434 84.8171 53.5765C84.9157 53.4315 85.0765 53.3858 85.4652 53.3792L86.4642 53.3562L86.4632 55.978ZM95.8881 55.978C95.8881 56.6028 95.8881 57.122 95.8575 57.3887C95.8345 57.5791 95.7967 57.6709 95.6602 57.7014C95.5827 57.7186 95.5034 57.7263 95.4241 57.7245C95.3399 57.7245 95.3172 57.7626 95.3172 57.7932C95.3172 57.8389 95.3633 57.8619 95.4471 57.8619C95.7141 57.8619 96.1706 57.8389 96.3238 57.8389C96.507 57.8389 96.9644 57.8619 97.4067 57.8619C97.483 57.8619 97.5362 57.8389 97.5362 57.7932C97.5362 57.7626 97.5057 57.7245 97.4297 57.7245C97.315 57.7246 97.2004 57.7169 97.0867 57.7014C96.8894 57.6709 96.8427 57.5715 96.8197 57.3963C96.7891 57.1217 96.7891 56.6031 96.7891 55.978V54.8343C96.7891 53.8507 96.7891 53.6676 96.8042 53.4617C96.8194 53.2315 96.873 53.1414 97.0558 53.1108C97.1206 53.0962 97.1867 53.0884 97.2531 53.0878C97.3218 53.0878 97.36 53.0727 97.36 53.0115C97.36 52.9734 97.3067 52.9583 97.2225 52.9583C96.9631 52.9583 96.5287 52.9734 96.361 52.9734C96.1702 52.9734 95.7128 52.9583 95.4613 52.9583C95.3544 52.9583 95.3011 52.9734 95.3011 53.0115C95.3011 53.0724 95.3393 53.0878 95.408 53.0878C95.4904 53.0862 95.5726 53.0965 95.652 53.1184C95.797 53.1644 95.8657 53.2404 95.8822 53.4617C95.8897 53.6676 95.8897 53.8504 95.8897 54.8343L95.8881 55.978ZM104.482 55.978C104.482 56.5729 104.482 57.0839 104.451 57.3591C104.429 57.5495 104.39 57.6718 104.254 57.7021C104.176 57.7193 104.097 57.727 104.018 57.7251C103.934 57.7251 103.911 57.7633 103.911 57.7938C103.911 57.8396 103.957 57.8626 104.041 57.8626C104.178 57.8626 104.346 57.855 104.506 57.8474C104.666 57.8474 104.811 57.8399 104.887 57.8399C105.084 57.8399 105.337 57.8474 105.665 57.855C105.994 57.8701 106.397 57.878 106.9 57.878C107.152 57.878 107.213 57.878 107.259 57.7103C107.309 57.4743 107.34 57.2345 107.35 56.9934C107.35 56.9247 107.343 56.8409 107.289 56.8409C107.244 56.8409 107.228 56.8714 107.213 56.9395C107.167 57.2065 107.091 57.3437 106.923 57.42C106.719 57.4852 106.505 57.5135 106.29 57.5038C105.604 57.5038 105.398 57.4052 105.383 56.9622C105.375 56.7718 105.383 56.2226 105.383 56.0013V55.4821C105.383 55.444 105.391 55.4134 105.421 55.4134C105.589 55.4134 106.351 55.4285 106.473 55.444C106.725 55.467 106.809 55.566 106.847 55.6955C106.862 55.7797 106.862 55.8632 106.87 55.932C106.87 55.9625 106.885 55.9852 106.931 55.9852C106.992 55.9852 106.999 55.8938 106.999 55.8405C106.999 55.7948 107.014 55.5354 107.03 55.4058C107.068 55.077 107.083 54.9711 107.083 54.9329C107.085 54.9168 107.081 54.9004 107.071 54.8875C107.061 54.8747 107.046 54.8663 107.03 54.8642C106.999 54.8642 106.977 54.9024 106.923 54.9481C106.83 55.0148 106.717 55.0494 106.603 55.0467C106.45 55.0622 105.581 55.0622 105.428 55.0622C105.39 55.0622 105.383 55.0316 105.383 54.9934V53.392C105.383 53.3539 105.398 53.3312 105.428 53.3312C105.566 53.3312 106.366 53.3463 106.481 53.3618C106.816 53.3923 106.869 53.4837 106.923 53.5982C106.954 53.6732 106.969 53.7536 106.969 53.8346C106.969 53.8879 106.977 53.9185 107.022 53.9185C107.076 53.9185 107.091 53.8422 107.099 53.8119C107.114 53.7356 107.129 53.4535 107.137 53.3844C107.144 53.2436 107.162 53.1034 107.19 52.9652C107.19 52.9346 107.182 52.9043 107.144 52.9043C107.108 52.912 107.072 52.9222 107.038 52.9349C106.984 52.9425 106.878 52.9655 106.756 52.9731C106.626 52.9806 105.139 52.9731 104.926 52.9731C104.735 52.9731 104.308 52.9579 103.957 52.9579C103.858 52.9579 103.805 52.9731 103.805 53.0188C103.805 53.0645 103.851 53.0875 103.919 53.0875C104.009 53.0855 104.098 53.0932 104.186 53.1105C104.4 53.1717 104.461 53.2404 104.476 53.4614C104.484 53.6672 104.484 53.8501 104.484 54.834L104.482 55.978ZM114.212 55.978C114.212 56.5729 114.212 57.0839 114.181 57.3591C114.158 57.5495 114.12 57.6718 113.984 57.7021C113.906 57.7192 113.827 57.727 113.748 57.7251C113.663 57.7251 113.641 57.7633 113.641 57.7938C113.641 57.8396 113.687 57.8626 113.771 57.8626C114.037 57.8626 114.465 57.8396 114.593 57.8396C114.691 57.8396 115.248 57.8626 115.638 57.8626C115.722 57.8626 115.775 57.8396 115.775 57.7938C115.773 57.7737 115.763 57.7552 115.747 57.7424C115.731 57.7296 115.711 57.7234 115.691 57.7251C115.581 57.7246 115.471 57.7169 115.362 57.7021C115.156 57.6715 115.126 57.5495 115.103 57.3591C115.072 57.0845 115.065 56.5811 115.065 55.978V55.8866C115.064 55.8794 115.065 55.8721 115.067 55.8652C115.069 55.8584 115.073 55.8522 115.078 55.847C115.084 55.8419 115.09 55.838 115.097 55.8356C115.103 55.8333 115.111 55.8325 115.118 55.8333L115.72 55.8484C115.743 55.8467 115.765 55.8499 115.786 55.8578C115.808 55.8657 115.827 55.8781 115.842 55.8941C115.926 55.9928 116.208 56.4278 116.475 56.7787C116.707 57.1599 117.019 57.4854 117.391 57.7324C117.619 57.8382 117.871 57.8829 118.123 57.8619H118.763C118.847 57.8619 118.893 57.8468 118.893 57.7932C118.891 57.773 118.881 57.7546 118.865 57.7417C118.849 57.7289 118.829 57.7227 118.809 57.7245C118.755 57.7263 118.701 57.7213 118.649 57.7093C118.368 57.6526 118.115 57.5018 117.932 57.2818C117.527 56.8777 117.055 56.2907 116.46 55.5587C117.116 55.0326 117.39 54.6051 117.39 54.1253C117.386 53.9502 117.341 53.7784 117.259 53.6236C117.177 53.4688 117.06 53.3351 116.917 53.2332C116.527 53.0234 116.086 52.9282 115.644 52.9586C115.438 52.9586 114.828 52.9737 114.599 52.9737C114.462 52.9737 114.035 52.9586 113.684 52.9586C113.586 52.9586 113.532 52.9737 113.532 53.0194C113.532 53.0651 113.578 53.0882 113.646 53.0882C113.736 53.0861 113.826 53.0939 113.913 53.1112C114.127 53.1723 114.188 53.2411 114.203 53.462C114.211 53.6679 114.211 53.8507 114.211 54.8346L114.212 55.978ZM115.067 53.4084C115.067 53.3552 115.082 53.3322 115.127 53.317C115.259 53.2985 115.391 53.2908 115.524 53.294C115.921 53.294 116.546 53.5304 116.546 54.4449C116.56 54.6287 116.528 54.8131 116.452 54.9811C116.376 55.149 116.258 55.2951 116.111 55.4058C115.972 55.4987 115.804 55.5366 115.638 55.5124C115.466 55.5161 115.294 55.4956 115.127 55.4515C115.082 55.4285 115.067 55.4058 115.067 55.3371V53.4084Z"></path>
</g>
</svg>
