<svg xmlns="http://www.w3.org/2000/svg" fill="none" viewBox="0 0 50 50" height="50" width="50">
<mask fill="white" id="path-1-inside-1_7_852">
<path d="M25.0001 45.5454L24.0791 44.5195C23.5041 43.9531 10.0381 28.2221 10.0381 18.7633C10.0381 14.8338 11.6144 11.0653 14.4204 8.28678C17.2263 5.50824 21.0319 3.94727 25.0001 3.94727C28.9683 3.94727 32.7739 5.50824 35.5798 8.28678C38.3857 11.0653 39.9621 14.8338 39.9621 18.7633C39.9621 28.2231 26.4961 43.9501 25.9211 44.6344L25.0001 45.5454ZM25.0001 6.22681C23.3361 6.22184 21.6874 6.5427 20.1491 7.17094C18.6107 7.79917 17.213 8.72238 16.0362 9.88746C14.8595 11.0525 13.9269 12.4365 13.2923 13.9598C12.6576 15.483 12.3333 17.1155 12.3381 18.7633C12.3381 26.0574 22.0061 38.3701 24.9981 42.0132C27.9901 38.3662 37.6581 26.0574 37.6581 18.7633C37.6631 17.1157 37.3391 15.4833 36.7048 13.9601C36.0705 12.4369 35.1384 11.0528 33.9621 9.88759C32.7857 8.72235 31.3884 7.79888 29.8503 7.17028C28.3123 6.54169 26.664 6.22038 25.0001 6.22483"></path>
</mask>
<path fill="#007DD1" d="M25.0001 45.5454L24.0791 44.5195C23.5041 43.9531 10.0381 28.2221 10.0381 18.7633C10.0381 14.8338 11.6144 11.0653 14.4204 8.28678C17.2263 5.50824 21.0319 3.94727 25.0001 3.94727C28.9683 3.94727 32.7739 5.50824 35.5798 8.28678C38.3857 11.0653 39.9621 14.8338 39.9621 18.7633C39.9621 28.2231 26.4961 43.9501 25.9211 44.6344L25.0001 45.5454ZM25.0001 6.22681C23.3361 6.22184 21.6874 6.5427 20.1491 7.17094C18.6107 7.79917 17.213 8.72238 16.0362 9.88746C14.8595 11.0525 13.9269 12.4365 13.2923 13.9598C12.6576 15.483 12.3333 17.1155 12.3381 18.7633C12.3381 26.0574 22.0061 38.3701 24.9981 42.0132C27.9901 38.3662 37.6581 26.0574 37.6581 18.7633C37.6631 17.1157 37.3391 15.4833 36.7048 13.9601C36.0705 12.4369 35.1384 11.0528 33.9621 9.88759C32.7857 8.72235 31.3884 7.79888 29.8503 7.17028C28.3123 6.54169 26.664 6.22038 25.0001 6.22483"></path>
<path mask="url(#path-1-inside-1_7_852)" fill="#3F0113" d="M25.0001 45.5454L24.256 46.2135L24.9571 46.9945L25.7033 46.2564L25.0001 45.5454ZM24.0791 44.5195L24.8232 43.8515L24.8027 43.8287L24.7809 43.8071L24.0791 44.5195ZM10.0381 18.7633H9.03809H10.0381ZM25.0001 3.94727V2.94727V3.94727ZM39.9621 18.7633H40.9621H39.9621ZM25.9211 44.6344L26.6243 45.3454L26.6571 45.313L26.6867 45.2777L25.9211 44.6344ZM12.3381 18.7633H13.3381L13.3381 18.7604L12.3381 18.7633ZM24.9981 42.0132L24.2253 42.6479L24.9985 43.5894L25.7712 42.6475L24.9981 42.0132ZM37.6581 18.7633L36.6581 18.7603V18.7633H37.6581ZM25.0001 45.5454L25.7442 44.8774L24.8232 43.8515L24.0791 44.5195L23.335 45.1876L24.256 46.2135L25.0001 45.5454ZM24.0791 44.5195L24.7809 43.8071C24.7847 43.8109 24.7706 43.7968 24.7288 43.7507C24.6915 43.7096 24.6415 43.6534 24.5788 43.5819C24.4538 43.4392 24.2841 43.2417 24.0757 42.9942C23.6593 42.4994 23.0927 41.8097 22.4276 40.9668C21.0967 39.2802 19.3767 36.9879 17.6764 34.4235C15.9741 31.856 14.3039 29.0342 13.0624 26.2867C11.8129 23.5215 11.0381 20.9182 11.0381 18.7633H10.0381H9.03809C9.03809 21.3378 9.94648 24.2479 11.2398 27.1103C12.5412 29.9903 14.2734 32.9102 16.0095 35.5287C19.4689 40.7463 23.0224 44.8823 23.3773 45.2319L24.0791 44.5195ZM10.0381 18.7633H11.0381C11.0381 15.1022 12.5067 11.5891 15.124 8.99734L14.4204 8.28678L13.7167 7.57622C10.7222 10.5415 9.03809 14.5654 9.03809 18.7633H10.0381ZM14.4204 8.28678L15.124 8.99734C17.7416 6.40524 21.294 4.94727 25.0001 4.94727V3.94727V2.94727C20.7698 2.94727 16.7109 4.61123 13.7167 7.57622L14.4204 8.28678ZM25.0001 3.94727V4.94727C28.7062 4.94727 32.2585 6.40524 34.8762 8.99734L35.5798 8.28678L36.2835 7.57622C33.2893 4.61123 29.2303 2.94727 25.0001 2.94727V3.94727ZM35.5798 8.28678L34.8762 8.99734C37.4935 11.5891 38.9621 15.1022 38.9621 18.7633H39.9621H40.9621C40.9621 14.5654 39.278 10.5415 36.2835 7.57622L35.5798 8.28678ZM39.9621 18.7633H38.9621C38.9621 20.9184 38.1872 23.5217 36.9377 26.2887C35.6961 29.038 34.0257 31.8633 32.3231 34.4381C28.9188 39.5862 25.4409 43.6515 25.1555 43.9911L25.9211 44.6344L26.6867 45.2777C26.9763 44.9331 30.5188 40.7927 33.9913 35.5413C35.7271 32.9163 37.4591 29.9933 38.7604 27.1119C40.0537 24.2481 40.9621 21.3381 40.9621 18.7633H39.9621ZM25.9211 44.6344L25.2178 43.9235L24.2968 44.8345L25.0001 45.5454L25.7033 46.2564L26.6243 45.3454L25.9211 44.6344ZM25.0001 6.22681L25.0031 5.22681C23.2086 5.22146 21.4305 5.56746 19.771 6.24516L20.1491 7.17094L20.5272 8.09671C21.9444 7.51794 23.4635 7.22223 24.9971 7.2268L25.0001 6.22681ZM20.1491 7.17094L19.771 6.24516C18.1115 6.92286 16.6031 7.91903 15.3326 9.17684L16.0362 9.88746L16.7398 10.5981C17.8229 9.52572 19.1099 8.67547 20.5272 8.09671L20.1491 7.17094ZM16.0362 9.88746L15.3326 9.17684C14.0622 10.4347 13.0549 11.9294 12.3692 13.5752L13.2923 13.9598L14.2154 14.3444C14.799 12.9437 15.6567 11.6704 16.7398 10.5981L16.0362 9.88746ZM13.2923 13.9598L12.3692 13.5752C11.6835 15.221 11.333 16.9852 11.3381 18.7662L12.3381 18.7633L13.3381 18.7604C13.3337 17.2458 13.6318 15.745 14.2154 14.3444L13.2923 13.9598ZM12.3381 18.7633H11.3381C11.3381 20.7836 12.0011 23.066 12.9755 25.353C13.9564 27.6553 15.2875 30.0407 16.6992 32.2891C19.5228 36.7865 22.7181 40.8127 24.2253 42.6479L24.9981 42.0132L25.7709 41.3786C24.286 39.5706 21.1514 35.619 18.393 31.2257C17.0137 29.0288 15.7407 26.7407 14.8154 24.569C13.8836 22.382 13.3381 20.39 13.3381 18.7633H12.3381ZM24.9981 42.0132L25.7712 42.6475C27.278 40.8108 30.4733 36.7845 33.297 32.2877C34.7086 30.0395 36.0397 27.6545 37.0207 25.3525C37.9951 23.0658 38.6581 20.7837 38.6581 18.7633H37.6581H36.6581C36.6581 20.39 36.1126 22.3818 35.1808 24.5684C34.2555 26.7398 32.9825 29.0275 31.6032 31.2241C28.8448 35.617 25.7101 39.5686 24.225 41.379L24.9981 42.0132ZM37.6581 18.7633L38.6581 18.7663C38.6635 16.9855 38.3133 15.2215 37.628 13.5757L36.7048 13.9601L35.7817 14.3445C36.3649 15.7451 36.6627 17.2458 36.6581 18.7603L37.6581 18.7633ZM36.7048 13.9601L37.628 13.5757C36.9427 11.9299 35.9358 10.4351 34.6658 9.17713L33.9621 9.88759L33.2583 10.598C34.341 11.6705 35.1984 12.9438 35.7817 14.3445L36.7048 13.9601ZM33.9621 9.88759L34.6658 9.17713C33.3958 7.91915 31.8878 6.9227 30.2286 6.24461L29.8503 7.17028L29.472 8.09596C30.8889 8.67505 32.1756 9.52554 33.2583 10.598L33.9621 9.88759ZM29.8503 7.17028L30.2286 6.24461C28.5695 5.56653 26.7917 5.22004 24.9974 5.22483L25.0001 6.22483L25.0028 7.22482C26.5362 7.22073 28.0551 7.51686 29.472 8.09596L29.8503 7.17028Z"></path>
<mask fill="white" id="path-3-inside-2_7_852">
<path d="M25.0001 24.4612C23.8619 24.4612 22.7492 24.127 21.8028 23.5008C20.8564 22.8746 20.1188 21.9845 19.6832 20.9432C19.2476 19.9019 19.1336 18.756 19.3557 17.6505C19.5778 16.5451 20.1259 15.5296 20.9307 14.7326C21.7356 13.9356 22.761 13.3929 23.8774 13.173C24.9937 12.9531 26.1509 13.0659 27.2025 13.4973C28.2541 13.9286 29.1529 14.659 29.7852 15.5962C30.4176 16.5334 30.7551 17.6352 30.7551 18.7623C30.7625 19.5127 30.6186 20.2571 30.332 20.9518C30.0454 21.6465 29.6218 22.2776 29.0859 22.8082C28.55 23.3389 27.9127 23.7584 27.2111 24.0422C26.5096 24.326 25.7579 24.4685 25.0001 24.4612ZM25.0001 15.344C24.3172 15.344 23.6496 15.5446 23.0817 15.9203C22.5139 16.296 22.0713 16.83 21.81 17.4548C21.5486 18.0796 21.4802 18.7671 21.6135 19.4304C21.7467 20.0937 22.0756 20.7029 22.5585 21.1811C23.0414 21.6593 23.6567 21.985 24.3265 22.1169C24.9963 22.2489 25.6906 22.1812 26.3215 21.9224C26.9525 21.6636 27.4918 21.2253 27.8712 20.663C28.2506 20.1007 28.4531 19.4396 28.4531 18.7633C28.4618 18.3118 28.3784 17.8633 28.208 17.4444C28.0376 17.0256 27.7836 16.6451 27.4612 16.3257C27.1389 16.0063 26.7548 15.7545 26.3319 15.5855C25.909 15.4165 25.4561 15.3337 25.0001 15.342"></path>
</mask>
<path fill="#007DD1" d="M25.0001 24.4612C23.8619 24.4612 22.7492 24.127 21.8028 23.5008C20.8564 22.8746 20.1188 21.9845 19.6832 20.9432C19.2476 19.9019 19.1336 18.756 19.3557 17.6505C19.5778 16.5451 20.1259 15.5296 20.9307 14.7326C21.7356 13.9356 22.761 13.3929 23.8774 13.173C24.9937 12.9531 26.1509 13.0659 27.2025 13.4973C28.2541 13.9286 29.1529 14.659 29.7852 15.5962C30.4176 16.5334 30.7551 17.6352 30.7551 18.7623C30.7625 19.5127 30.6186 20.2571 30.332 20.9518C30.0454 21.6465 29.6218 22.2776 29.0859 22.8082C28.55 23.3389 27.9127 23.7584 27.2111 24.0422C26.5096 24.326 25.7579 24.4685 25.0001 24.4612ZM25.0001 15.344C24.3172 15.344 23.6496 15.5446 23.0817 15.9203C22.5139 16.296 22.0713 16.83 21.81 17.4548C21.5486 18.0796 21.4802 18.7671 21.6135 19.4304C21.7467 20.0937 22.0756 20.7029 22.5585 21.1811C23.0414 21.6593 23.6567 21.985 24.3265 22.1169C24.9963 22.2489 25.6906 22.1812 26.3215 21.9224C26.9525 21.6636 27.4918 21.2253 27.8712 20.663C28.2506 20.1007 28.4531 19.4396 28.4531 18.7633C28.4618 18.3118 28.3784 17.8633 28.208 17.4444C28.0376 17.0256 27.7836 16.6451 27.4612 16.3257C27.1389 16.0063 26.7548 15.7545 26.3319 15.5855C25.909 15.4165 25.4561 15.3337 25.0001 15.342"></path>
<path mask="url(#path-3-inside-2_7_852)" fill="#3F0113" d="M25.0001 24.4612L25.0097 23.4612H25.0001V24.4612ZM30.7551 18.7623H29.7551L29.7552 18.7721L30.7551 18.7623ZM28.4531 18.7633L27.4533 18.7441L27.4531 18.7537V18.7633H28.4531ZM25.0001 24.4612V23.4612C24.0575 23.4612 23.1368 23.1843 22.3546 22.6668L21.8028 23.5008L21.251 24.3347C22.3616 25.0696 23.6663 25.4612 25.0001 25.4612V24.4612ZM21.8028 23.5008L22.3546 22.6668C21.5725 22.1493 20.9644 21.4148 20.6057 20.5573L19.6832 20.9432L18.7607 21.3291C19.2731 22.5542 20.1403 23.5998 21.251 24.3347L21.8028 23.5008ZM19.6832 20.9432L20.6057 20.5573C20.2471 19.6999 20.1534 18.757 20.3361 17.8475L19.3557 17.6505L18.3753 17.4536C18.1139 18.755 18.2481 20.1038 18.7607 21.3291L19.6832 20.9432ZM19.3557 17.6505L20.3361 17.8475C20.5188 16.9379 20.9701 16.101 21.6344 15.4432L20.9307 14.7326L20.2271 14.0221C19.2817 14.9583 18.6367 16.1523 18.3753 17.4536L19.3557 17.6505ZM20.9307 14.7326L21.6344 15.4432C22.2987 14.7853 23.1464 14.3362 24.0706 14.1541L23.8774 13.173L23.6841 12.1918C22.3756 12.4496 21.1724 13.086 20.2271 14.0221L20.9307 14.7326ZM23.8774 13.173L24.0706 14.1541C24.9949 13.9721 25.9529 14.0656 26.823 14.4225L27.2025 13.4973L27.582 12.5721C26.3489 12.0663 24.9925 11.9341 23.6841 12.1918L23.8774 13.173ZM27.2025 13.4973L26.823 14.4225C27.693 14.7793 28.435 15.383 28.9563 16.1556L29.7852 15.5962L30.6142 15.0369C29.8708 13.9351 28.8151 13.0779 27.582 12.5721L27.2025 13.4973ZM29.7852 15.5962L28.9563 16.1556C29.4775 16.928 29.7551 17.8352 29.7551 18.7623H30.7551H31.7551C31.7551 17.4352 31.3577 16.1387 30.6142 15.0369L29.7852 15.5962ZM30.7551 18.7623L29.7552 18.7721C29.7612 19.3882 29.6431 19.9995 29.4076 20.5704L30.332 20.9518L31.2564 21.3332C31.5941 20.5146 31.7637 19.6373 31.7551 18.7525L30.7551 18.7623ZM30.332 20.9518L29.4076 20.5704C29.1721 21.1413 28.8237 21.6606 28.3823 22.0977L29.0859 22.8082L29.7895 23.5188C30.4199 22.8946 30.9187 22.1517 31.2564 21.3332L30.332 20.9518ZM29.0859 22.8082L28.3823 22.0977C27.9408 22.5348 27.4153 22.8809 26.8361 23.1152L27.2111 24.0422L27.5862 24.9692C28.4101 24.6359 29.1592 24.143 29.7895 23.5188L29.0859 22.8082ZM27.2111 24.0422L26.8361 23.1152C26.2569 23.3495 25.6359 23.4672 25.0097 23.4612L25.0001 24.4612L24.9905 25.4611C25.8799 25.4697 26.7623 25.3025 27.5862 24.9692L27.2111 24.0422ZM25.0001 15.344V14.344C24.1216 14.344 23.262 14.6019 22.5299 15.0863L23.0817 15.9203L23.6335 16.7542C24.0372 16.4872 24.5128 16.344 25.0001 16.344V15.344ZM23.0817 15.9203L22.5299 15.0863C21.7978 15.5707 21.2257 16.2603 20.8874 17.0689L21.81 17.4548L22.7325 17.8407C22.917 17.3997 23.23 17.0213 23.6335 16.7542L23.0817 15.9203ZM21.81 17.4548L20.8874 17.0689C20.5491 17.8776 20.4605 18.7681 20.6331 19.6273L21.6135 19.4304L22.5939 19.2335C22.5 18.7661 22.5481 18.2816 22.7325 17.8407L21.81 17.4548ZM21.6135 19.4304L20.6331 19.6273C20.8056 20.4865 21.2314 21.2743 21.8548 21.8917L22.5585 21.1811L23.2621 20.4706C22.9198 20.1316 22.6878 19.7009 22.5939 19.2335L21.6135 19.4304ZM22.5585 21.1811L21.8548 21.8917C22.4782 22.509 23.2713 22.9283 24.1332 23.0981L24.3265 22.1169L24.5197 21.1358C24.042 21.0417 23.6045 20.8097 23.2621 20.4706L22.5585 21.1811ZM24.3265 22.1169L24.1332 23.0981C24.9951 23.2678 25.8885 23.1808 26.701 22.8476L26.3215 21.9224L25.942 20.9972C25.4926 21.1815 24.9975 21.2299 24.5197 21.1358L24.3265 22.1169ZM26.3215 21.9224L26.701 22.8476C27.5136 22.5143 28.2097 21.9492 28.7001 21.2223L27.8712 20.663L27.0422 20.1037C26.7739 20.5014 26.3914 20.8128 25.942 20.9972L26.3215 21.9224ZM27.8712 20.663L28.7001 21.2223C29.1907 20.4953 29.4531 19.6396 29.4531 18.7633H28.4531H27.4531C27.4531 19.2396 27.3105 19.706 27.0422 20.1037L27.8712 20.663ZM28.4531 18.7633L29.4529 18.7826C29.4642 18.1952 29.3558 17.6119 29.1343 17.0675L28.208 17.4444L27.2818 17.8213C27.4011 18.1146 27.4594 18.4285 27.4533 18.7441L28.4531 18.7633ZM28.208 17.4444L29.1343 17.0675C28.9128 16.5232 28.583 16.0294 28.1651 15.6153L27.4612 16.3257L26.7574 17.036C26.9842 17.2608 27.1624 17.5279 27.2818 17.8213L28.208 17.4444ZM27.4612 16.3257L28.1651 15.6153C27.7472 15.2013 27.2498 14.8755 26.703 14.6569L26.3319 15.5855L25.9608 16.5141C26.2597 16.6336 26.5305 16.8113 26.7574 17.036L27.4612 16.3257ZM26.3319 15.5855L26.703 14.6569C26.1562 14.4384 25.5708 14.3314 24.9818 14.3422L25.0001 15.342L25.0184 16.3419C25.3413 16.336 25.6618 16.3946 25.9608 16.5141L26.3319 15.5855Z"></path>
</svg>
