<svg xmlns="http://www.w3.org/2000/svg" fill="none" viewBox="0 0 50 51" height="51" width="50">
<path stroke="#3F0113" fill="#007DD1" d="M37.2158 13.207C38.3941 13.1689 39.541 13.566 40.4355 14.3154L40.6113 14.4697C41.471 15.2656 41.9984 16.3471 42.0967 17.501L42.1104 17.7334V33.7266C42.0691 34.8887 41.5932 35.9927 40.7783 36.8252L40.6104 36.9883C39.6932 37.8368 38.4722 38.2916 37.2158 38.251L37.208 38.25H13.4004L13.3916 38.251C12.2139 38.2885 11.0678 37.8907 10.1738 37.1416L9.99902 36.9873C9.1396 36.1918 8.61238 35.1113 8.51367 33.958L8.5 33.7266V17.7334C8.54061 16.5711 9.01562 15.4668 9.83008 14.6338L9.99805 14.4707C10.8577 13.6746 11.9842 13.225 13.1572 13.2051L13.3916 13.207H37.2158ZM40.2061 20.2041L25.6152 28.1582C25.5763 28.1789 25.5354 28.1955 25.4932 28.208L25.3613 28.2334C25.2728 28.2407 25.1836 28.229 25.0996 28.2012L24.9707 28.1445L10.4023 20.208L9.66309 19.8047V33.7617C9.69644 34.72 10.1129 35.6249 10.8184 36.2783C11.4797 36.8908 12.3447 37.2358 13.2441 37.251L13.4238 37.25H37.1836L37.3643 37.251C38.2636 37.2357 39.1288 36.8908 39.79 36.2783C40.4954 35.6249 40.911 34.7199 40.9443 33.7617L40.9453 33.7529V19.8008L40.2061 20.2041ZM40.9473 17.707L40.9463 17.6982C40.915 16.7993 40.5477 15.9471 39.9199 15.3057L39.791 15.1807C39.0852 14.5273 38.1473 14.1784 37.1836 14.21H13.4238C12.4606 14.1791 11.5237 14.5284 10.8184 15.1816C10.1128 15.8351 9.69645 16.74 9.66309 17.6982V18.6172L9.92383 18.7598L25.0654 27.0098L25.3047 27.1396L25.5439 27.0098L40.6865 18.7559L40.9473 18.6133V17.707Z"></path>
</svg>
